<svg xmlns="http://www.w3.org/2000/svg" width="832" height="320" viewBox="0 0 104 40" role="img" aria-labelledby="veyro-title veyro-desc" shape-rendering="crispEdges">
  <title id="veyro-title">Veyro</title>
  <desc id="veyro-desc">Pixel-art watchful eye connected through an amber approval gate to three coding-agent nodes, beside the VEYRO wordmark on a clipped navy plate.</desc>
  <g fill="#334f5d">
    <rect x="4" y="0" width="96" height="1"/>
    <rect x="3" y="1" width="1" height="1"/>
    <rect x="100" y="1" width="1" height="1"/>
    <rect x="2" y="2" width="1" height="1"/>
    <rect x="101" y="2" width="1" height="1"/>
    <rect x="1" y="3" width="1" height="1"/>
    <rect x="102" y="3" width="1" height="1"/>
    <rect x="0" y="4" width="1" height="1"/>
    <rect x="103" y="4" width="1" height="1"/>
    <rect x="0" y="5" width="1" height="1"/>
    <rect x="103" y="5" width="1" height="1"/>
    <rect x="0" y="6" width="1" height="1"/>
    <rect x="103" y="6" width="1" height="1"/>
    <rect x="0" y="7" width="1" height="1"/>
    <rect x="103" y="7" width="1" height="1"/>
    <rect x="0" y="8" width="1" height="1"/>
    <rect x="103" y="8" width="1" height="1"/>
    <rect x="0" y="9" width="1" height="1"/>
    <rect x="103" y="9" width="1" height="1"/>
    <rect x="0" y="10" width="1" height="1"/>
    <rect x="103" y="10" width="1" height="1"/>
    <rect x="0" y="11" width="1" height="1"/>
    <rect x="103" y="11" width="1" height="1"/>
    <rect x="0" y="12" width="1" height="1"/>
    <rect x="103" y="12" width="1" height="1"/>
    <rect x="0" y="13" width="1" height="1"/>
    <rect x="103" y="13" width="1" height="1"/>
    <rect x="0" y="14" width="1" height="1"/>
    <rect x="103" y="14" width="1" height="1"/>
    <rect x="0" y="15" width="1" height="1"/>
    <rect x="103" y="15" width="1" height="1"/>
    <rect x="0" y="16" width="1" height="1"/>
    <rect x="103" y="16" width="1" height="1"/>
    <rect x="0" y="17" width="1" height="1"/>
    <rect x="103" y="17" width="1" height="1"/>
    <rect x="0" y="18" width="1" height="1"/>
    <rect x="103" y="18" width="1" height="1"/>
    <rect x="0" y="19" width="1" height="1"/>
    <rect x="103" y="19" width="1" height="1"/>
    <rect x="0" y="20" width="1" height="1"/>
    <rect x="103" y="20" width="1" height="1"/>
    <rect x="0" y="21" width="1" height="1"/>
    <rect x="103" y="21" width="1" height="1"/>
    <rect x="0" y="22" width="1" height="1"/>
    <rect x="103" y="22" width="1" height="1"/>
    <rect x="0" y="23" width="1" height="1"/>
    <rect x="103" y="23" width="1" height="1"/>
    <rect x="0" y="24" width="1" height="1"/>
    <rect x="103" y="24" width="1" height="1"/>
    <rect x="0" y="25" width="1" height="1"/>
    <rect x="103" y="25" width="1" height="1"/>
    <rect x="0" y="26" width="1" height="1"/>
    <rect x="103" y="26" width="1" height="1"/>
    <rect x="0" y="27" width="1" height="1"/>
    <rect x="103" y="27" width="1" height="1"/>
    <rect x="0" y="28" width="1" height="1"/>
    <rect x="103" y="28" width="1" height="1"/>
    <rect x="0" y="29" width="1" height="1"/>
    <rect x="103" y="29" width="1" height="1"/>
    <rect x="0" y="30" width="1" height="1"/>
    <rect x="103" y="30" width="1" height="1"/>
    <rect x="0" y="31" width="1" height="1"/>
    <rect x="103" y="31" width="1" height="1"/>
    <rect x="0" y="32" width="1" height="1"/>
    <rect x="103" y="32" width="1" height="1"/>
    <rect x="0" y="33" width="1" height="1"/>
    <rect x="103" y="33" width="1" height="1"/>
    <rect x="0" y="34" width="1" height="1"/>
    <rect x="103" y="34" width="1" height="1"/>
    <rect x="0" y="35" width="1" height="1"/>
    <rect x="103" y="35" width="1" height="1"/>
    <rect x="1" y="36" width="1" height="1"/>
    <rect x="102" y="36" width="1" height="1"/>
    <rect x="2" y="37" width="1" height="1"/>
    <rect x="101" y="37" width="1" height="1"/>
    <rect x="3" y="38" width="1" height="1"/>
    <rect x="100" y="38" width="1" height="1"/>
    <rect x="4" y="39" width="96" height="1"/>
  </g>
  <g fill="#101d2b">
    <rect x="4" y="1" width="96" height="1"/>
    <rect x="3" y="2" width="98" height="1"/>
    <rect x="2" y="3" width="100" height="1"/>
    <rect x="1" y="4" width="102" height="1"/>
    <rect x="1" y="5" width="102" height="1"/>
    <rect x="1" y="6" width="102" height="1"/>
    <rect x="1" y="7" width="14" height="1"/>
    <rect x="22" y="7" width="81" height="1"/>
    <rect x="1" y="8" width="11" height="1"/>
    <rect x="25" y="8" width="78" height="1"/>
    <rect x="1" y="9" width="9" height="1"/>
    <rect x="27" y="9" width="76" height="1"/>
    <rect x="1" y="10" width="7" height="1"/>
    <rect x="18" y="10" width="2" height="1"/>
    <rect x="29" y="10" width="74" height="1"/>
    <rect x="1" y="11" width="6" height="1"/>
    <rect x="17" y="11" width="3" height="1"/>
    <rect x="30" y="11" width="73" height="1"/>
    <rect x="1" y="12" width="5" height="1"/>
    <rect x="17" y="12" width="3" height="1"/>
    <rect x="31" y="12" width="8" height="1"/>
    <rect x="41" y="12" width="6" height="1"/>
    <rect x="49" y="12" width="2" height="1"/>
    <rect x="61" y="12" width="2" height="1"/>
    <rect x="65" y="12" width="6" height="1"/>
    <rect x="73" y="12" width="2" height="1"/>
    <rect x="83" y="12" width="6" height="1"/>
    <rect x="95" y="12" width="8" height="1"/>
    <rect x="1" y="13" width="6" height="1"/>
    <rect x="17" y="13" width="3" height="1"/>
    <rect x="30" y="13" width="9" height="1"/>
    <rect x="41" y="13" width="6" height="1"/>
    <rect x="49" y="13" width="2" height="1"/>
    <rect x="61" y="13" width="2" height="1"/>
    <rect x="65" y="13" width="6" height="1"/>
    <rect x="73" y="13" width="2" height="1"/>
    <rect x="83" y="13" width="6" height="1"/>
    <rect x="95" y="13" width="8" height="1"/>
    <rect x="1" y="14" width="7" height="1"/>
    <rect x="17" y="14" width="3" height="1"/>
    <rect x="29" y="14" width="10" height="1"/>
    <rect x="41" y="14" width="6" height="1"/>
    <rect x="49" y="14" width="2" height="1"/>
    <rect x="53" y="14" width="10" height="1"/>
    <rect x="65" y="14" width="6" height="1"/>
    <rect x="73" y="14" width="2" height="1"/>
    <rect x="77" y="14" width="6" height="1"/>
    <rect x="85" y="14" width="2" height="1"/>
    <rect x="89" y="14" width="6" height="1"/>
    <rect x="97" y="14" width="6" height="1"/>
    <rect x="1" y="15" width="9" height="1"/>
    <rect x="27" y="15" width="12" height="1"/>
    <rect x="41" y="15" width="6" height="1"/>
    <rect x="49" y="15" width="2" height="1"/>
    <rect x="53" y="15" width="10" height="1"/>
    <rect x="65" y="15" width="6" height="1"/>
    <rect x="73" y="15" width="2" height="1"/>
    <rect x="77" y="15" width="6" height="1"/>
    <rect x="85" y="15" width="2" height="1"/>
    <rect x="89" y="15" width="6" height="1"/>
    <rect x="97" y="15" width="6" height="1"/>
    <rect x="1" y="16" width="11" height="1"/>
    <rect x="25" y="16" width="14" height="1"/>
    <rect x="41" y="16" width="6" height="1"/>
    <rect x="49" y="16" width="2" height="1"/>
    <rect x="53" y="16" width="12" height="1"/>
    <rect x="67" y="16" width="2" height="1"/>
    <rect x="71" y="16" width="4" height="1"/>
    <rect x="77" y="16" width="6" height="1"/>
    <rect x="85" y="16" width="2" height="1"/>
    <rect x="89" y="16" width="6" height="1"/>
    <rect x="97" y="16" width="6" height="1"/>
    <rect x="1" y="17" width="14" height="1"/>
    <rect x="22" y="17" width="17" height="1"/>
    <rect x="41" y="17" width="6" height="1"/>
    <rect x="49" y="17" width="2" height="1"/>
    <rect x="53" y="17" width="12" height="1"/>
    <rect x="67" y="17" width="2" height="1"/>
    <rect x="71" y="17" width="4" height="1"/>
    <rect x="77" y="17" width="6" height="1"/>
    <rect x="85" y="17" width="2" height="1"/>
    <rect x="89" y="17" width="6" height="1"/>
    <rect x="97" y="17" width="6" height="1"/>
    <rect x="1" y="18" width="17" height="1"/>
    <rect x="19" y="18" width="20" height="1"/>
    <rect x="41" y="18" width="6" height="1"/>
    <rect x="49" y="18" width="2" height="1"/>
    <rect x="59" y="18" width="8" height="1"/>
    <rect x="69" y="18" width="6" height="1"/>
    <rect x="83" y="18" width="4" height="1"/>
    <rect x="89" y="18" width="6" height="1"/>
    <rect x="97" y="18" width="6" height="1"/>
    <rect x="1" y="19" width="17" height="1"/>
    <rect x="19" y="19" width="20" height="1"/>
    <rect x="41" y="19" width="6" height="1"/>
    <rect x="49" y="19" width="2" height="1"/>
    <rect x="59" y="19" width="8" height="1"/>
    <rect x="69" y="19" width="6" height="1"/>
    <rect x="83" y="19" width="4" height="1"/>
    <rect x="89" y="19" width="6" height="1"/>
    <rect x="97" y="19" width="6" height="1"/>
    <rect x="1" y="20" width="17" height="1"/>
    <rect x="19" y="20" width="20" height="1"/>
    <rect x="41" y="20" width="6" height="1"/>
    <rect x="49" y="20" width="2" height="1"/>
    <rect x="53" y="20" width="14" height="1"/>
    <rect x="69" y="20" width="6" height="1"/>
    <rect x="77" y="20" width="2" height="1"/>
    <rect x="81" y="20" width="6" height="1"/>
    <rect x="89" y="20" width="6" height="1"/>
    <rect x="97" y="20" width="6" height="1"/>
    <rect x="1" y="21" width="17" height="1"/>
    <rect x="19" y="21" width="20" height="1"/>
    <rect x="41" y="21" width="6" height="1"/>
    <rect x="49" y="21" width="2" height="1"/>
    <rect x="53" y="21" width="14" height="1"/>
    <rect x="69" y="21" width="6" height="1"/>
    <rect x="77" y="21" width="2" height="1"/>
    <rect x="81" y="21" width="6" height="1"/>
    <rect x="89" y="21" width="6" height="1"/>
    <rect x="97" y="21" width="6" height="1"/>
    <rect x="1" y="22" width="14" height="1"/>
    <rect x="22" y="22" width="19" height="1"/>
    <rect x="43" y="22" width="2" height="1"/>
    <rect x="47" y="22" width="4" height="1"/>
    <rect x="53" y="22" width="14" height="1"/>
    <rect x="69" y="22" width="6" height="1"/>
    <rect x="77" y="22" width="4" height="1"/>
    <rect x="83" y="22" width="4" height="1"/>
    <rect x="89" y="22" width="6" height="1"/>
    <rect x="97" y="22" width="6" height="1"/>
    <rect x="1" y="23" width="14" height="1"/>
    <rect x="16" y="23" width="4" height="1"/>
    <rect x="22" y="23" width="19" height="1"/>
    <rect x="43" y="23" width="2" height="1"/>
    <rect x="47" y="23" width="4" height="1"/>
    <rect x="53" y="23" width="14" height="1"/>
    <rect x="69" y="23" width="6" height="1"/>
    <rect x="77" y="23" width="4" height="1"/>
    <rect x="83" y="23" width="4" height="1"/>
    <rect x="89" y="23" width="6" height="1"/>
    <rect x="97" y="23" width="6" height="1"/>
    <rect x="1" y="24" width="14" height="1"/>
    <rect x="16" y="24" width="3" height="1"/>
    <rect x="20" y="24" width="1" height="1"/>
    <rect x="22" y="24" width="21" height="1"/>
    <rect x="45" y="24" width="6" height="1"/>
    <rect x="61" y="24" width="6" height="1"/>
    <rect x="69" y="24" width="6" height="1"/>
    <rect x="77" y="24" width="6" height="1"/>
    <rect x="85" y="24" width="4" height="1"/>
    <rect x="95" y="24" width="8" height="1"/>
    <rect x="1" y="25" width="14" height="1"/>
    <rect x="17" y="25" width="1" height="1"/>
    <rect x="19" y="25" width="2" height="1"/>
    <rect x="22" y="25" width="21" height="1"/>
    <rect x="45" y="25" width="6" height="1"/>
    <rect x="61" y="25" width="6" height="1"/>
    <rect x="69" y="25" width="6" height="1"/>
    <rect x="77" y="25" width="6" height="1"/>
    <rect x="85" y="25" width="4" height="1"/>
    <rect x="95" y="25" width="8" height="1"/>
    <rect x="1" y="26" width="14" height="1"/>
    <rect x="16" y="26" width="1" height="1"/>
    <rect x="18" y="26" width="3" height="1"/>
    <rect x="22" y="26" width="81" height="1"/>
    <rect x="1" y="27" width="14" height="1"/>
    <rect x="16" y="27" width="5" height="1"/>
    <rect x="22" y="27" width="81" height="1"/>
    <rect x="1" y="28" width="14" height="1"/>
    <rect x="22" y="28" width="81" height="1"/>
    <rect x="1" y="29" width="17" height="1"/>
    <rect x="19" y="29" width="84" height="1"/>
    <rect x="1" y="30" width="7" height="1"/>
    <rect x="29" y="30" width="10" height="1"/>
    <rect x="73" y="30" width="3" height="1"/>
    <rect x="90" y="30" width="3" height="1"/>
    <rect x="97" y="30" width="6" height="1"/>
    <rect x="1" y="31" width="7" height="1"/>
    <rect x="9" y="31" width="9" height="1"/>
    <rect x="19" y="31" width="9" height="1"/>
    <rect x="29" y="31" width="74" height="1"/>
    <rect x="1" y="32" width="5" height="1"/>
    <rect x="11" y="32" width="5" height="1"/>
    <rect x="21" y="32" width="5" height="1"/>
    <rect x="31" y="32" width="72" height="1"/>
    <rect x="1" y="33" width="5" height="1"/>
    <rect x="11" y="33" width="5" height="1"/>
    <rect x="21" y="33" width="5" height="1"/>
    <rect x="31" y="33" width="72" height="1"/>
    <rect x="1" y="34" width="5" height="1"/>
    <rect x="11" y="34" width="5" height="1"/>
    <rect x="21" y="34" width="5" height="1"/>
    <rect x="31" y="34" width="72" height="1"/>
    <rect x="1" y="35" width="102" height="1"/>
  </g>
  <g fill="#0b1522">
    <rect x="2" y="36" width="100" height="1"/>
    <rect x="3" y="37" width="98" height="1"/>
    <rect x="4" y="38" width="96" height="1"/>
  </g>
  <g fill="#2b6f75">
    <rect x="12" y="9" width="3" height="1"/>
    <rect x="22" y="9" width="3" height="1"/>
    <rect x="10" y="10" width="5" height="1"/>
    <rect x="22" y="10" width="5" height="1"/>
    <rect x="9" y="11" width="6" height="1"/>
    <rect x="22" y="11" width="6" height="1"/>
    <rect x="8" y="12" width="7" height="1"/>
    <rect x="22" y="12" width="7" height="1"/>
    <rect x="9" y="13" width="6" height="1"/>
    <rect x="22" y="13" width="6" height="1"/>
    <rect x="10" y="14" width="5" height="1"/>
    <rect x="22" y="14" width="5" height="1"/>
    <rect x="12" y="15" width="3" height="1"/>
    <rect x="22" y="15" width="3" height="1"/>
    <rect x="18" y="18" width="1" height="1"/>
    <rect x="18" y="19" width="1" height="1"/>
    <rect x="18" y="20" width="1" height="1"/>
    <rect x="18" y="21" width="1" height="1"/>
    <rect x="18" y="29" width="1" height="1"/>
    <rect x="8" y="30" width="21" height="1"/>
    <rect x="39" y="30" width="34" height="1"/>
    <rect x="8" y="31" width="1" height="1"/>
    <rect x="18" y="31" width="1" height="1"/>
    <rect x="28" y="31" width="1" height="1"/>
    <rect x="6" y="32" width="1" height="1"/>
    <rect x="10" y="32" width="1" height="1"/>
    <rect x="16" y="32" width="1" height="1"/>
    <rect x="20" y="32" width="1" height="1"/>
    <rect x="26" y="32" width="1" height="1"/>
    <rect x="30" y="32" width="1" height="1"/>
    <rect x="6" y="33" width="1" height="1"/>
    <rect x="10" y="33" width="1" height="1"/>
    <rect x="16" y="33" width="1" height="1"/>
    <rect x="20" y="33" width="1" height="1"/>
    <rect x="26" y="33" width="1" height="1"/>
    <rect x="30" y="33" width="1" height="1"/>
    <rect x="6" y="34" width="5" height="1"/>
    <rect x="16" y="34" width="5" height="1"/>
    <rect x="26" y="34" width="5" height="1"/>
  </g>
  <g fill="#71efc8">
    <rect x="15" y="7" width="7" height="1"/>
    <rect x="12" y="8" width="13" height="1"/>
    <rect x="10" y="9" width="2" height="1"/>
    <rect x="15" y="9" width="1" height="1"/>
    <rect x="18" y="9" width="4" height="1"/>
    <rect x="25" y="9" width="2" height="1"/>
    <rect x="8" y="10" width="2" height="1"/>
    <rect x="15" y="10" width="1" height="1"/>
    <rect x="20" y="10" width="2" height="1"/>
    <rect x="27" y="10" width="2" height="1"/>
    <rect x="7" y="11" width="2" height="1"/>
    <rect x="15" y="11" width="2" height="1"/>
    <rect x="20" y="11" width="2" height="1"/>
    <rect x="28" y="11" width="2" height="1"/>
    <rect x="6" y="12" width="2" height="1"/>
    <rect x="15" y="12" width="2" height="1"/>
    <rect x="20" y="12" width="2" height="1"/>
    <rect x="29" y="12" width="2" height="1"/>
    <rect x="7" y="13" width="2" height="1"/>
    <rect x="15" y="13" width="2" height="1"/>
    <rect x="20" y="13" width="2" height="1"/>
    <rect x="28" y="13" width="2" height="1"/>
    <rect x="8" y="14" width="2" height="1"/>
    <rect x="15" y="14" width="2" height="1"/>
    <rect x="20" y="14" width="2" height="1"/>
    <rect x="27" y="14" width="2" height="1"/>
    <rect x="10" y="15" width="2" height="1"/>
    <rect x="15" y="15" width="7" height="1"/>
    <rect x="25" y="15" width="2" height="1"/>
    <rect x="12" y="16" width="13" height="1"/>
    <rect x="15" y="17" width="7" height="1"/>
    <rect x="76" y="30" width="14" height="1"/>
    <rect x="7" y="32" width="3" height="1"/>
    <rect x="17" y="32" width="3" height="1"/>
    <rect x="27" y="32" width="3" height="1"/>
    <rect x="7" y="33" width="3" height="1"/>
    <rect x="17" y="33" width="3" height="1"/>
    <rect x="27" y="33" width="3" height="1"/>
  </g>
  <g fill="#e2faf1">
    <rect x="16" y="9" width="2" height="1"/>
    <rect x="16" y="10" width="2" height="1"/>
    <rect x="39" y="12" width="2" height="1"/>
    <rect x="47" y="12" width="2" height="1"/>
    <rect x="51" y="12" width="10" height="1"/>
    <rect x="63" y="12" width="2" height="1"/>
    <rect x="71" y="12" width="2" height="1"/>
    <rect x="75" y="12" width="8" height="1"/>
    <rect x="89" y="12" width="6" height="1"/>
    <rect x="39" y="13" width="2" height="1"/>
    <rect x="47" y="13" width="2" height="1"/>
    <rect x="51" y="13" width="10" height="1"/>
    <rect x="63" y="13" width="2" height="1"/>
    <rect x="71" y="13" width="2" height="1"/>
    <rect x="75" y="13" width="8" height="1"/>
    <rect x="89" y="13" width="6" height="1"/>
    <rect x="39" y="14" width="2" height="1"/>
    <rect x="47" y="14" width="2" height="1"/>
    <rect x="51" y="14" width="2" height="1"/>
    <rect x="63" y="14" width="2" height="1"/>
    <rect x="71" y="14" width="2" height="1"/>
    <rect x="75" y="14" width="2" height="1"/>
    <rect x="83" y="14" width="2" height="1"/>
    <rect x="87" y="14" width="2" height="1"/>
    <rect x="95" y="14" width="2" height="1"/>
    <rect x="39" y="15" width="2" height="1"/>
    <rect x="47" y="15" width="2" height="1"/>
    <rect x="51" y="15" width="2" height="1"/>
    <rect x="63" y="15" width="2" height="1"/>
    <rect x="71" y="15" width="2" height="1"/>
    <rect x="75" y="15" width="2" height="1"/>
    <rect x="83" y="15" width="2" height="1"/>
    <rect x="87" y="15" width="2" height="1"/>
    <rect x="95" y="15" width="2" height="1"/>
    <rect x="39" y="16" width="2" height="1"/>
    <rect x="47" y="16" width="2" height="1"/>
    <rect x="51" y="16" width="2" height="1"/>
    <rect x="65" y="16" width="2" height="1"/>
    <rect x="69" y="16" width="2" height="1"/>
    <rect x="75" y="16" width="2" height="1"/>
    <rect x="83" y="16" width="2" height="1"/>
    <rect x="87" y="16" width="2" height="1"/>
    <rect x="95" y="16" width="2" height="1"/>
    <rect x="39" y="17" width="2" height="1"/>
    <rect x="47" y="17" width="2" height="1"/>
    <rect x="51" y="17" width="2" height="1"/>
    <rect x="65" y="17" width="2" height="1"/>
    <rect x="69" y="17" width="2" height="1"/>
    <rect x="75" y="17" width="2" height="1"/>
    <rect x="83" y="17" width="2" height="1"/>
    <rect x="87" y="17" width="2" height="1"/>
    <rect x="95" y="17" width="2" height="1"/>
    <rect x="39" y="18" width="2" height="1"/>
    <rect x="47" y="18" width="2" height="1"/>
    <rect x="51" y="18" width="8" height="1"/>
    <rect x="67" y="18" width="2" height="1"/>
    <rect x="75" y="18" width="8" height="1"/>
    <rect x="87" y="18" width="2" height="1"/>
    <rect x="95" y="18" width="2" height="1"/>
    <rect x="39" y="19" width="2" height="1"/>
    <rect x="47" y="19" width="2" height="1"/>
    <rect x="51" y="19" width="8" height="1"/>
    <rect x="67" y="19" width="2" height="1"/>
    <rect x="75" y="19" width="8" height="1"/>
    <rect x="87" y="19" width="2" height="1"/>
    <rect x="95" y="19" width="2" height="1"/>
    <rect x="39" y="20" width="2" height="1"/>
    <rect x="47" y="20" width="2" height="1"/>
    <rect x="51" y="20" width="2" height="1"/>
    <rect x="67" y="20" width="2" height="1"/>
    <rect x="75" y="20" width="2" height="1"/>
    <rect x="79" y="20" width="2" height="1"/>
    <rect x="87" y="20" width="2" height="1"/>
    <rect x="95" y="20" width="2" height="1"/>
    <rect x="39" y="21" width="2" height="1"/>
    <rect x="47" y="21" width="2" height="1"/>
    <rect x="51" y="21" width="2" height="1"/>
    <rect x="67" y="21" width="2" height="1"/>
    <rect x="75" y="21" width="2" height="1"/>
    <rect x="79" y="21" width="2" height="1"/>
    <rect x="87" y="21" width="2" height="1"/>
    <rect x="95" y="21" width="2" height="1"/>
    <rect x="41" y="22" width="2" height="1"/>
    <rect x="45" y="22" width="2" height="1"/>
    <rect x="51" y="22" width="2" height="1"/>
    <rect x="67" y="22" width="2" height="1"/>
    <rect x="75" y="22" width="2" height="1"/>
    <rect x="81" y="22" width="2" height="1"/>
    <rect x="87" y="22" width="2" height="1"/>
    <rect x="95" y="22" width="2" height="1"/>
    <rect x="41" y="23" width="2" height="1"/>
    <rect x="45" y="23" width="2" height="1"/>
    <rect x="51" y="23" width="2" height="1"/>
    <rect x="67" y="23" width="2" height="1"/>
    <rect x="75" y="23" width="2" height="1"/>
    <rect x="81" y="23" width="2" height="1"/>
    <rect x="87" y="23" width="2" height="1"/>
    <rect x="95" y="23" width="2" height="1"/>
    <rect x="43" y="24" width="2" height="1"/>
    <rect x="51" y="24" width="10" height="1"/>
    <rect x="67" y="24" width="2" height="1"/>
    <rect x="75" y="24" width="2" height="1"/>
    <rect x="83" y="24" width="2" height="1"/>
    <rect x="89" y="24" width="6" height="1"/>
    <rect x="43" y="25" width="2" height="1"/>
    <rect x="51" y="25" width="10" height="1"/>
    <rect x="67" y="25" width="2" height="1"/>
    <rect x="75" y="25" width="2" height="1"/>
    <rect x="83" y="25" width="2" height="1"/>
    <rect x="89" y="25" width="6" height="1"/>
  </g>
  <g fill="#ffc369">
    <rect x="15" y="22" width="7" height="1"/>
    <rect x="15" y="23" width="1" height="1"/>
    <rect x="20" y="23" width="2" height="1"/>
    <rect x="15" y="24" width="1" height="1"/>
    <rect x="19" y="24" width="1" height="1"/>
    <rect x="21" y="24" width="1" height="1"/>
    <rect x="15" y="25" width="2" height="1"/>
    <rect x="18" y="25" width="1" height="1"/>
    <rect x="21" y="25" width="1" height="1"/>
    <rect x="15" y="26" width="1" height="1"/>
    <rect x="17" y="26" width="1" height="1"/>
    <rect x="21" y="26" width="1" height="1"/>
    <rect x="15" y="27" width="1" height="1"/>
    <rect x="21" y="27" width="1" height="1"/>
    <rect x="15" y="28" width="7" height="1"/>
    <rect x="93" y="30" width="4" height="1"/>
  </g>
</svg>
